<?xml version="1.0" encoding="UTF-8" standalone="no"?>
<!DOCTYPE svg PUBLIC "-//W3C//DTD SVG 1.1//EN"
 "http://www.w3.org/Graphics/SVG/1.1/DTD/svg11.dtd">
<!-- Generated by graphviz version 2.43.0 (0)
 -->
<!-- Title: %3 Pages: 1 -->
<svg width="773pt" height="147pt"
 viewBox="0.00 0.00 772.68 147.00" xmlns="http://www.w3.org/2000/svg" xmlns:xlink="http://www.w3.org/1999/xlink">
<g id="graph0" class="graph" transform="scale(1 1) rotate(0) translate(4 143)">
<title>%3</title>
<polygon fill="white" stroke="transparent" points="-4,4 -4,-143 768.68,-143 768.68,4 -4,4"/>
<!-- _i0 -->
<g id="node1" class="node">
<title>_i0</title>
<ellipse fill="black" stroke="black" cx="1.8" cy="-127.5" rx="1.8" ry="1.8"/>
</g>
<!-- node0 -->
<g id="node6" class="node">
<title>node0</title>
<polygon fill="none" stroke="black" points="39.6,-0.5 39.6,-138.5 93.6,-138.5 93.6,-0.5 39.6,-0.5"/>
<text text-anchor="middle" x="66.6" y="-123.3" font-family="Times,serif" font-size="14.00">_i0</text>
<polyline fill="none" stroke="black" points="39.6,-115.5 93.6,-115.5 "/>
<text text-anchor="middle" x="66.6" y="-100.3" font-family="Times,serif" font-size="14.00">_i1</text>
<polyline fill="none" stroke="black" points="39.6,-92.5 93.6,-92.5 "/>
<text text-anchor="middle" x="66.6" y="-77.3" font-family="Times,serif" font-size="14.00">_i2</text>
<polyline fill="none" stroke="black" points="39.6,-69.5 93.6,-69.5 "/>
<text text-anchor="middle" x="66.6" y="-54.3" font-family="Times,serif" font-size="14.00">_i3</text>
<polyline fill="none" stroke="black" points="39.6,-46.5 93.6,-46.5 "/>
<text text-anchor="middle" x="66.6" y="-31.3" font-family="Times,serif" font-size="14.00">_o0</text>
<polyline fill="none" stroke="black" points="39.6,-23.5 93.6,-23.5 "/>
<text text-anchor="middle" x="66.6" y="-8.3" font-family="Times,serif" font-size="14.00">_t0</text>
</g>
<!-- _i0&#45;&gt;node0 -->
<g id="edge1" class="edge">
<title>_i0&#45;&gt;node0:_i0</title>
<path fill="none" stroke="black" d="M3.71,-127.5C6.91,-127.5 18.07,-127.5 29.58,-127.5"/>
<polygon fill="black" stroke="black" points="29.6,-131 39.6,-127.5 29.6,-124 29.6,-131"/>
</g>
<!-- _i1 -->
<g id="node2" class="node">
<title>_i1</title>
<ellipse fill="black" stroke="black" cx="1.8" cy="-104.5" rx="1.8" ry="1.8"/>
</g>
<!-- _i1&#45;&gt;node0 -->
<g id="edge2" class="edge">
<title>_i1&#45;&gt;node0:_i1</title>
<path fill="none" stroke="black" d="M3.71,-104.5C6.91,-104.5 18.07,-104.5 29.58,-104.5"/>
<polygon fill="black" stroke="black" points="29.6,-108 39.6,-104.5 29.6,-101 29.6,-108"/>
</g>
<!-- _i2 -->
<g id="node3" class="node">
<title>_i2</title>
<ellipse fill="black" stroke="black" cx="1.8" cy="-81.5" rx="1.8" ry="1.8"/>
</g>
<!-- _i2&#45;&gt;node0 -->
<g id="edge3" class="edge">
<title>_i2&#45;&gt;node0:_i2</title>
<path fill="none" stroke="black" d="M3.71,-81.5C6.91,-81.5 18.07,-81.5 29.58,-81.5"/>
<polygon fill="black" stroke="black" points="29.6,-85 39.6,-81.5 29.6,-78 29.6,-85"/>
</g>
<!-- _i3 -->
<g id="node4" class="node">
<title>_i3</title>
<ellipse fill="black" stroke="black" cx="1.8" cy="-57.5" rx="1.8" ry="1.8"/>
</g>
<!-- _i3&#45;&gt;node0 -->
<g id="edge4" class="edge">
<title>_i3&#45;&gt;node0:_i3</title>
<path fill="none" stroke="black" d="M3.71,-57.5C6.91,-57.5 18.07,-57.5 29.58,-57.5"/>
<polygon fill="black" stroke="black" points="29.6,-61 39.6,-57.5 29.6,-54 29.6,-61"/>
</g>
<!-- _o0 -->
<g id="node5" class="node">
<title>_o0</title>
<ellipse fill="black" stroke="black" cx="762.88" cy="-34.5" rx="1.8" ry="1.8"/>
</g>
<!-- node1 -->
<g id="node7" class="node">
<title>node1</title>
<polygon fill="none" stroke="black" points="264.39,-0.5 264.39,-138.5 318.39,-138.5 318.39,-0.5 264.39,-0.5"/>
<text text-anchor="middle" x="291.39" y="-123.3" font-family="Times,serif" font-size="14.00">_i0</text>
<polyline fill="none" stroke="black" points="264.39,-115.5 318.39,-115.5 "/>
<text text-anchor="middle" x="291.39" y="-100.3" font-family="Times,serif" font-size="14.00">_i1</text>
<polyline fill="none" stroke="black" points="264.39,-92.5 318.39,-92.5 "/>
<text text-anchor="middle" x="291.39" y="-77.3" font-family="Times,serif" font-size="14.00">_i2</text>
<polyline fill="none" stroke="black" points="264.39,-69.5 318.39,-69.5 "/>
<text text-anchor="middle" x="291.39" y="-54.3" font-family="Times,serif" font-size="14.00">_i3</text>
<polyline fill="none" stroke="black" points="264.39,-46.5 318.39,-46.5 "/>
<text text-anchor="middle" x="291.39" y="-31.3" font-family="Times,serif" font-size="14.00">_o0</text>
<polyline fill="none" stroke="black" points="264.39,-23.5 318.39,-23.5 "/>
<text text-anchor="middle" x="291.39" y="-8.3" font-family="Times,serif" font-size="14.00">_t0</text>
</g>
<!-- node0&#45;&gt;node1 -->
<!-- ufunc0 -->
<g id="node10" class="node">
<title>ufunc0</title>
<ellipse fill="none" stroke="black" cx="179" cy="-81.5" rx="49.29" ry="18"/>
<text text-anchor="middle" x="179" y="-77.8" font-family="Times,serif" font-size="14.00">multiply</text>
</g>
<!-- node0&#45;&gt;ufunc0 -->
<g id="edge6" class="edge">
<title>node0:_i0&#45;&gt;ufunc0</title>
<path fill="none" stroke="black" d="M93.6,-127.5C104.81,-127.5 127.52,-114.82 146.56,-102.77"/>
<polygon fill="black" stroke="black" points="148.49,-105.69 154.99,-97.33 144.69,-99.81 148.49,-105.69"/>
<text text-anchor="middle" x="149.99" y="-101.13" font-family="Times,serif" font-size="14.00">0</text>
</g>
<!-- node0&#45;&gt;ufunc0 -->
<g id="edge7" class="edge">
<title>node0:_i1&#45;&gt;ufunc0</title>
<path fill="none" stroke="black" d="M93.6,-104.5C107.52,-104.5 122.28,-101.55 135.51,-97.77"/>
<polygon fill="black" stroke="black" points="136.77,-101.04 145.29,-94.75 134.7,-94.36 136.77,-101.04"/>
<text text-anchor="middle" x="140.29" y="-98.55" font-family="Times,serif" font-size="14.00">1</text>
</g>
<!-- node2 -->
<g id="node8" class="node">
<title>node2</title>
<polygon fill="none" stroke="black" points="489.18,-0.5 489.18,-138.5 543.18,-138.5 543.18,-0.5 489.18,-0.5"/>
<text text-anchor="middle" x="516.18" y="-123.3" font-family="Times,serif" font-size="14.00">_i0</text>
<polyline fill="none" stroke="black" points="489.18,-115.5 543.18,-115.5 "/>
<text text-anchor="middle" x="516.18" y="-100.3" font-family="Times,serif" font-size="14.00">_i1</text>
<polyline fill="none" stroke="black" points="489.18,-92.5 543.18,-92.5 "/>
<text text-anchor="middle" x="516.18" y="-77.3" font-family="Times,serif" font-size="14.00">_i2</text>
<polyline fill="none" stroke="black" points="489.18,-69.5 543.18,-69.5 "/>
<text text-anchor="middle" x="516.18" y="-54.3" font-family="Times,serif" font-size="14.00">_i3</text>
<polyline fill="none" stroke="black" points="489.18,-46.5 543.18,-46.5 "/>
<text text-anchor="middle" x="516.18" y="-31.3" font-family="Times,serif" font-size="14.00">_o0</text>
<polyline fill="none" stroke="black" points="489.18,-23.5 543.18,-23.5 "/>
<text text-anchor="middle" x="516.18" y="-8.3" font-family="Times,serif" font-size="14.00">_t0</text>
</g>
<!-- node1&#45;&gt;node2 -->
<!-- ufunc1 -->
<g id="node11" class="node">
<title>ufunc1</title>
<ellipse fill="none" stroke="black" cx="403.79" cy="-57.5" rx="49.29" ry="18"/>
<text text-anchor="middle" x="403.79" y="-53.8" font-family="Times,serif" font-size="14.00">multiply</text>
</g>
<!-- node1&#45;&gt;ufunc1 -->
<g id="edge10" class="edge">
<title>node1:_i2&#45;&gt;ufunc1</title>
<path fill="none" stroke="black" d="M318.39,-81.5C332.59,-81.5 347.65,-78.32 361.04,-74.27"/>
<polygon fill="black" stroke="black" points="362.51,-77.47 370.93,-71.04 360.33,-70.82 362.51,-77.47"/>
<text text-anchor="middle" x="365.93" y="-74.84" font-family="Times,serif" font-size="14.00">0</text>
</g>
<!-- node1&#45;&gt;ufunc1 -->
<g id="edge11" class="edge">
<title>node1:_i3&#45;&gt;ufunc1</title>
<path fill="none" stroke="black" d="M318.39,-57.5C326.71,-57.5 335.49,-57.5 344.12,-57.5"/>
<polygon fill="black" stroke="black" points="344.14,-61 354.14,-57.5 344.14,-54 344.14,-61"/>
<text text-anchor="middle" x="349.14" y="-46.3" font-family="Times,serif" font-size="14.00">1</text>
</g>
<!-- node3 -->
<g id="node9" class="node">
<title>node3</title>
<polygon fill="none" stroke="black" points="671.08,-0.5 671.08,-138.5 725.08,-138.5 725.08,-0.5 671.08,-0.5"/>
<text text-anchor="middle" x="698.08" y="-123.3" font-family="Times,serif" font-size="14.00">_i0</text>
<polyline fill="none" stroke="black" points="671.08,-115.5 725.08,-115.5 "/>
<text text-anchor="middle" x="698.08" y="-100.3" font-family="Times,serif" font-size="14.00">_i1</text>
<polyline fill="none" stroke="black" points="671.08,-92.5 725.08,-92.5 "/>
<text text-anchor="middle" x="698.08" y="-77.3" font-family="Times,serif" font-size="14.00">_i2</text>
<polyline fill="none" stroke="black" points="671.08,-69.5 725.08,-69.5 "/>
<text text-anchor="middle" x="698.08" y="-54.3" font-family="Times,serif" font-size="14.00">_i3</text>
<polyline fill="none" stroke="black" points="671.08,-46.5 725.08,-46.5 "/>
<text text-anchor="middle" x="698.08" y="-31.3" font-family="Times,serif" font-size="14.00">_o0</text>
<polyline fill="none" stroke="black" points="671.08,-23.5 725.08,-23.5 "/>
<text text-anchor="middle" x="698.08" y="-8.3" font-family="Times,serif" font-size="14.00">_t0</text>
</g>
<!-- node2&#45;&gt;node3 -->
<!-- ufunc2 -->
<g id="node12" class="node">
<title>ufunc2</title>
<ellipse fill="none" stroke="black" cx="607.13" cy="-34.5" rx="27.9" ry="18"/>
<text text-anchor="middle" x="607.13" y="-30.8" font-family="Times,serif" font-size="14.00">add</text>
</g>
<!-- node2&#45;&gt;ufunc2 -->
<g id="edge14" class="edge">
<title>node2:_o0&#45;&gt;ufunc2</title>
<path fill="none" stroke="black" d="M543.18,-34.5C551.57,-34.5 560.59,-34.5 569.11,-34.5"/>
<polygon fill="black" stroke="black" points="569.17,-38 579.17,-34.5 569.17,-31 569.17,-38"/>
<text text-anchor="middle" x="574.17" y="-23.3" font-family="Times,serif" font-size="14.00">0</text>
</g>
<!-- node2&#45;&gt;ufunc2 -->
<g id="edge15" class="edge">
<title>node2:_t0&#45;&gt;ufunc2</title>
<path fill="none" stroke="black" d="M543.18,-11.5C554.38,-11.5 566.06,-14.75 576.27,-18.81"/>
<polygon fill="black" stroke="black" points="574.98,-22.07 585.54,-22.87 577.78,-15.65 574.98,-22.07"/>
<text text-anchor="middle" x="590.54" y="-11.67" font-family="Times,serif" font-size="14.00">1</text>
</g>
<!-- node3&#45;&gt;_o0 -->
<g id="edge17" class="edge">
<title>node3:_o0&#45;&gt;_o0</title>
<path fill="none" stroke="black" d="M725.08,-34.5C733.69,-34.5 743.43,-34.5 750.73,-34.5"/>
<polygon fill="black" stroke="black" points="750.97,-38 760.97,-34.5 750.97,-31 750.97,-38"/>
</g>
<!-- ufunc0&#45;&gt;node1 -->
<g id="edge8" class="edge">
<title>ufunc0&#45;&gt;node1:_o0</title>
<path fill="none" stroke="black" d="M197.53,-64.8C211.46,-53.08 232.22,-38.9 254.22,-35.34"/>
<polygon fill="black" stroke="black" points="254.71,-38.81 264.39,-34.5 254.14,-31.84 254.71,-38.81"/>
</g>
<!-- ufunc1&#45;&gt;node2 -->
<g id="edge12" class="edge">
<title>ufunc1&#45;&gt;node2:_t0</title>
<path fill="none" stroke="black" d="M423.02,-40.63C437.01,-29.25 457.54,-15.7 479.18,-12.3"/>
<polygon fill="black" stroke="black" points="479.49,-15.79 489.18,-11.5 478.93,-8.81 479.49,-15.79"/>
</g>
<!-- ufunc2&#45;&gt;node3 -->
<g id="edge16" class="edge">
<title>ufunc2&#45;&gt;node3:_o0</title>
<path fill="none" stroke="black" d="M635.09,-34.5C643.09,-34.5 652.09,-34.5 660.89,-34.5"/>
<polygon fill="black" stroke="black" points="661.08,-38 671.08,-34.5 661.08,-31 661.08,-38"/>
</g>
</g>
</svg>
